<?xml version="1.0" encoding="UTF-8" standalone="no"?>
<!-- Created with Inkscape (http://www.inkscape.org/) -->

<svg
   version="1.1"
   id="svg1"
   width="92.559998"
   height="30.32"
   viewBox="0 0 92.559998 30.32"
   sodipodi:docname="icon.svg"
   inkscape:version="1.4.2 (ebf0e940d0, 2025-05-08)"
   xmlns:inkscape="http://www.inkscape.org/namespaces/inkscape"
   xmlns:sodipodi="http://sodipodi.sourceforge.net/DTD/sodipodi-0.dtd"
   xmlns="http://www.w3.org/2000/svg"
   xmlns:svg="http://www.w3.org/2000/svg">
  <defs
     id="defs1" />
  <sodipodi:namedview
     id="namedview1"
     pagecolor="#ffffff"
     bordercolor="#000000"
     borderopacity="0.25"
     inkscape:showpageshadow="2"
     inkscape:pageopacity="0.0"
     inkscape:pagecheckerboard="0"
     inkscape:deskcolor="#d1d1d1"
     inkscape:zoom="7.7625327"
     inkscape:cx="59.516658"
     inkscape:cy="16.489464"
     inkscape:window-width="1536"
     inkscape:window-height="892"
     inkscape:window-x="0"
     inkscape:window-y="0"
     inkscape:window-maximized="1"
     inkscape:current-layer="g1">
    <inkscape:page
       x="0"
       y="0"
       inkscape:label="1"
       id="page1"
       width="92.559998"
       height="30.32"
       margin="0"
       bleed="0" />
  </sodipodi:namedview>
  <g
     id="g1"
     inkscape:groupmode="layer"
     inkscape:label="1">
    <path
       id="path1"
       d="m 15.561867,-6.6904609 h -1.042969 c -0.164062,1.7109375 -0.5625,5.625 -5.0273433,5.625 H 6.8431172 V -15.936555 h 3.2929688 v -1.066406 l -4.7343751,0.04687 c -0.9140625,0 -3.7382812,0 -4.46484371,-0.04687 v 1.066406 H 3.5735859 V -1.0654609 H 0.93686719 V 9.453125e-4 H 14.847023 Z m 0,0"
       style="fill:#000000;fill-opacity:1;fill-rule:nonzero;stroke:none"
       aria-label="L"
       transform="matrix(1.3333333,0,0,1.3333333,0.536,24.557333)" />
    <path
       id="path2"
       d="m 14.875259,-0.0012476 v -1.0667067 h -1.71274 V -7.588387 c 0,-2.3587741 -1.021635,-3.560697 -3.7409857,-3.560697 -1.7878606,0 -3.3203125,0.85637 -4.1616587,2.7193508 h -0.030048 v -2.7193508 l -4.1917067,0.195312 v 1.0667071 c 1.547476,0 1.7127404,0 1.7127404,0.9615385 v 7.8575721 H 1.0381198 v 1.0667067 c 0.5709135,-0.04507211 2.358774,-0.04507211 3.0498798,-0.04507211 0.6911058,0 2.5090144,0 3.0799279,0.04507211 V -1.0679543 H 5.4551871 v -5.2734375 c 0,-2.6893029 1.9831731,-3.9963942 3.5757212,-3.9963942 0.9164663,0 1.4272837,0.6009615 1.4272837,2.4789663 v 6.7908654 H 8.7454515 v 1.0667067 c 0.5709135,-0.04507211 2.3587745,-0.04507211 3.0498795,-0.04507211 0.70613,0 2.509015,0 3.079928,0.04507211 z m 0,0"
       style="fill:#000000;fill-opacity:1;fill-rule:nonzero;stroke:none"
       aria-label="n"
       transform="matrix(1.04,0,0,1.04,22.877387,28.66536)" />
    <path
       id="path3"
       d="M 11.553898,-5.2021797 6.8195234,-16.475617 C 6.6203047,-16.979523 6.5968672,-16.979523 5.9171797,-16.979523 H 1.3117109 c -0.44531246,0 -0.82031246,0 -0.82031246,0.445312 0,0.421875 0.4453125,0.421875 0.57421876,0.421875 0.2929687,0 0.9609375,0.04687 1.5117187,0.246094 v 13.2421873 c 0,0.515625 0,1.6054688 -1.68749996,1.75781251 -0.46875,0.046875 -0.46875,0.3984375 -0.46875,0.421875 0,0.4453125025 0.3984375,0.4453125025 0.84374996,0.4453125025 h 3.84375 c 0.4453125,0 0.8085938,0 0.8085938,-0.4453125025 0,-0.22265625 -0.1875,-0.3984375 -0.3867188,-0.421875 C 3.6203047,-1.0185859 3.6203047,-2.0615547 3.6203047,-2.6240547 V -14.963898 l 0.023437,-0.03516 6.046875,14.48437531 c 0.1992187,0.4453125 0.3749993,0.5156250025 0.5156243,0.5156250025 0.304689,0 0.375,-0.1992187525 0.503907,-0.4921875025 l 6.070312,-14.50781281 0.02344,0.03516 v 12.3398433 c 0,0.515625 0,1.6054688 -1.687499,1.75781251 -0.46875,0.046875 -0.46875,0.3984375 -0.46875,0.421875 0,0.4453125025 0.398438,0.4453125025 0.84375,0.4453125025 h 6.621093 c 0.445313,0 0.808594,0 0.808594,-0.4453125025 0,-0.22265625 -0.199219,-0.3984375 -0.386719,-0.421875 C 20.624211,-1.0185859 20.624211,-2.0615547 20.624211,-2.6240547 V -14.354523 c 0,-0.515625 0,-1.605469 1.6875,-1.757813 0.246094,-0.02344 0.46875,-0.140625 0.46875,-0.421875 0,-0.445312 -0.375,-0.445312 -0.820313,-0.445312 h -4.78125 c -0.644531,0 -0.703125,0 -0.925781,0.527343 z m -0.75,0.4453125 c 0.199219,0.421875 0.222657,0.4453125 0.527344,0.5390625 L 10.22968,-1.5810859 H 10.18281 L 4.5343672,-15.069367 c -0.1289063,-0.316406 -0.3164063,-0.738281 -0.6679688,-1.042969 h 2.15625 z m -7.4882808,3.89062501 h -0.421875 c 0.058594,-0.0703125 0.1054687,-0.15234371 0.1523437,-0.19921871 0.023437,-0.023437 0.023437,-0.046875 0.046875,-0.070312 z M 17.671086,-16.112336 h 2.625 c -0.539063,0.621094 -0.539063,1.265625 -0.539063,1.710938 v 11.8242183 c 0,0.4453125 0,1.0898438 0.5625,1.71093751 h -3.199218 c 0.550781,-0.62109371 0.550781,-1.26562501 0.550781,-1.71093751 z m 0,0"
       style="fill:#000000;fill-opacity:1;fill-rule:nonzero;stroke:none"
       aria-label="M"
       transform="matrix(1.3333333,0,0,1.3333333,38.989333,24.557333)" />
    <path
       id="path4"
       d="m 13.412436,-0.55360243 c 0,-0.50455727 -0.227865,-0.50455727 -0.569662,-0.50455727 -1.5625,-0.032552 -1.5625,-0.4231771 -1.5625,-0.9928386 V -7.405816 c 0,-2.2786458 -1.8066403,-3.82487 -5.3059893,-3.82487 -1.3834635,0 -4.313151,0.130209 -4.313151,2.2135419 0,1.0416667 0.797526,1.4811198 1.4648437,1.4811198 0.7486979,0 1.4648438,-0.5208333 1.4648438,-1.4648438 0,-0.4720052 -0.1790365,-0.9114583 -0.6022136,-1.1881509 0.8138021,-0.227865 1.4160157,-0.227865 1.8880209,-0.227865 1.6927083,0 2.7018229,0.9440107 2.7018229,2.9785159 v 0.9928386 c -3.9225261,0 -7.86132814,1.0904948 -7.86132814,3.8411458 0,2.26236981 2.88085934,2.75065106 4.58984374,2.75065106 1.9042969,0 3.125,-1.04166667 3.6132813,-2.13216146 0,0.9277344 0,1.98567708611 2.5065107,1.98567708611 h 1.269531 c 0.520833,0 0.716146,0 0.716146,-0.55338541611 z M 8.5784514,-3.4507378 c 0,2.3274739 -2.0833333,2.78320308 -2.8808594,2.78320308 -1.2044271,0 -2.2298177,-0.81380208 -2.2298177,-1.95312498 0,-2.2623698 2.6855469,-3.0273438 5.1106771,-3.1575521 z m 0,0"
       style="fill:#000000;fill-opacity:1;fill-rule:nonzero;stroke:none"
       aria-label="a"
       transform="matrix(0.96,0,0,0.96,70.202187,17.953333)" />
    <path
       id="path5"
       d="M 6.9114968,0.00150521 V -1.0652015 H 5.3790449 V -11.146331 l -4.2067308,0.195312 v 1.0667069 c 1.4573317,0 1.6225962,0 1.6225962,0.9615385 v 7.8575721 H 1.0971939 v 1.06670671 c 0.5709135,-0.04507212 2.2686298,-0.04507212 2.9447115,-0.04507212 0.6911058,0 2.2836539,0 2.8695914,0.04507212 z M 5.6795256,-15.067605 c 0,-1.021635 -0.8413461,-1.787861 -1.7878605,-1.787861 -1.0216347,0 -1.8028847,0.811298 -1.8028847,1.787861 0,1.00661 0.8413462,1.78786 1.7728366,1.78786 1.0216346,0 1.8179086,-0.826322 1.8179086,-1.78786 z m 0,0"
       style="fill:#000000;fill-opacity:1;fill-rule:nonzero;stroke:none"
       aria-label="i"
       transform="matrix(1.04,0,0,1.04,83.218293,27.197653)" />
    <path
       id="path6"
       d="m 4.1711406,7.8125e-4 v -0.3046875 H 3.8547344 c -0.9023438,0 -0.9257813,-0.1171875 -0.9257813,-0.48046875 v -5.5898437 c 0,-0.234375 0,-0.2578125 -0.234375,-0.2578125 -0.609375,0.6328125 -1.4882812,0.6328125 -1.80468747,0.6328125 v 0.3164062 c 0.19921877,0 0.78515627,0 1.30078127,-0.2578125 v 5.15625 c 0,0.3515625 -0.035156,0.48046875 -0.9257813,0.48046875 H 0.94848438 V 7.8125e-4 C 1.3000469,-0.034375 2.1555156,-0.034375 2.5539531,-0.034375 c 0.3984375,0 1.265625,0 1.6171875,0.03515625 z m 0,0"
       style="fill:#000000;fill-opacity:1;fill-rule:nonzero;stroke:none"
       aria-label="1"
       transform="matrix(1.3333333,0,0,1.3333333,206.43067,772.23333)" />
  </g>
</svg>
